<?xml version="1.0" ?><svg id="Layer_1" style="enable-background:new 0 0 750 750;" version="1.1" viewBox="0 0 750 750" xml:space="preserve" xmlns="http://www.w3.org/2000/svg" xmlns:xlink="http://www.w3.org/1999/xlink"><style type="text/css">
	.st0{fill:#414042;}
</style><g><path class="st0" d="M515.5,26.5h-281c-23.7,0-43,19.3-43,43v611c0,23.7,19.3,43,43,43h281c23.7,0,43-19.3,43-43v-611   C558.5,45.8,539.2,26.5,515.5,26.5z M533.5,680.5c0,9.9-8.1,18-18,18h-281c-9.9,0-18-8.1-18-18v-611c0-9.9,8.1-18,18-18h281   c9.9,0,18,8.1,18,18V680.5z"/><path class="st0" d="M511.3,99.1H238.7c-6.9,0-12.5,5.6-12.5,12.5v489.4c0,6.9,5.6,12.5,12.5,12.5h272.7c6.9,0,12.5-5.6,12.5-12.5   V111.6C523.8,104.7,518.2,99.1,511.3,99.1z M498.8,588.4H251.2V124.1h247.7V588.4z"/><path class="st0" d="M350.2,86.5h97c6.9,0,12.5-5.6,12.5-12.5s-5.6-12.5-12.5-12.5h-97c-6.9,0-12.5,5.6-12.5,12.5   S343.3,86.5,350.2,86.5z"/><circle class="st0" cx="315" cy="74" r="12.3"/><path class="st0" d="M375,616c-21.7,0-39.3,17.7-39.3,39.3s17.7,39.3,39.3,39.3s39.3-17.7,39.3-39.3S396.7,616,375,616z M375,669.7   c-7.9,0-14.3-6.4-14.3-14.3S367.1,641,375,641s14.3,6.4,14.3,14.3S382.9,669.7,375,669.7z"/></g></svg>