<?xml version="1.0" ?><svg height="100%" id="svg15" style="fill-rule:evenodd;clip-rule:evenodd;stroke-linejoin:round;stroke-miterlimit:2;" version="1.1" viewBox="0 0 64 64" width="100%" xml:space="preserve" xmlns="http://www.w3.org/2000/svg" xmlns:cc="http://creativecommons.org/ns#" xmlns:dc="http://purl.org/dc/elements/1.1/" xmlns:inkscape="http://www.inkscape.org/namespaces/inkscape" xmlns:rdf="http://www.w3.org/1999/02/22-rdf-syntax-ns#" xmlns:sodipodi="http://sodipodi.sourceforge.net/DTD/sodipodi-0.dtd" xmlns:svg="http://www.w3.org/2000/svg"><defs id="defs19"/><path d="M 9.7799554,45.499241 6.0519439,56.684276 c -0.1190004,0.359001 -0.026,0.755002 0.2420007,1.023003 0.2680008,0.268001 0.6640021,0.361001 1.0230032,0.242001 L 18.501982,54.220268 c 3.935013,2.398008 8.557027,3.780012 13.499042,3.780012 14.350045,0 26.000081,-11.650036 26.000081,-26.000081 0,-14.350044 -11.650036,-26.0000804 -26.000081,-26.0000804 -14.350044,0 -26.0000803,11.6500364 -26.0000803,26.0000804 0,4.942016 1.3820043,9.56403 3.7790117,13.499042 z m 2.0460066,0.187001 c 0.095,-0.285001 0.057,-0.598002 -0.104001,-0.852003 -2.3560069,-3.712012 -3.7210111,-8.115025 -3.7210111,-12.83404 0,-13.246041 10.7540331,-24.0000742 24.0000741,-24.0000742 13.246041,0 24.000075,10.7540332 24.000075,24.0000742 0,13.246041 -10.754034,24.000075 -24.000075,24.000075 -4.719014,0 -9.122028,-1.365005 -12.834039,-3.721012 -0.254001,-0.161 -0.567002,-0.199001 -0.852003,-0.104 l -9.7330303,3.24401 c 0,0 3.2440103,-9.73303 3.2440103,-9.73303 z" id="path4" style="stroke-width:1;fill:#000000"/><path d="m 38.376921,34.996919 c -0.375028,-0.161481 -0.811128,-0.07715 -1.100336,0.212059 l -3.535547,3.535547 c -0.239003,0.239003 -0.645107,0.216152 -1.13945,0.110719 -1.225569,-0.262485 -2.811167,-1.232899 -4.517495,-2.939226 -1.706327,-1.706328 -2.67674,-3.291926 -2.939226,-4.517495 -0.105433,-0.494343 -0.128284,-0.900447 0.110719,-1.13945 0,0 3.535547,-3.535547 3.535547,-3.535547 0.289208,-0.289208 0.37354,-0.725308 0.212059,-1.100336 0,0 -0.92754,-2.164981 -1.915444,-4.469523 -0.653889,-1.525048 -2.021177,-2.626463 -3.649946,-2.940009 -1.629402,-0.314178 -3.308191,0.200486 -4.481286,1.373581 -0.988539,0.988539 -1.762116,1.762116 -1.762116,1.762116 -1.699891,1.699891 -2.352294,4.235138 -1.971424,7.16443 0.525714,4.048534 3.043764,8.89863 7.204242,13.059108 4.160478,4.160478 9.010574,6.678528 13.059108,7.204242 2.929292,0.38087 5.464539,-0.271533 7.16443,-1.971424 0,0 0.773577,-0.773577 1.762116,-1.762116 1.173095,-1.173095 1.687759,-2.851883 1.373581,-4.481286 -0.313546,-1.628769 -1.414961,-2.996057 -2.940009,-3.649946 -2.304542,-0.987904 -4.469523,-1.915444 -4.469523,-1.915444 z m -0.165018,2.104803 3.84656,1.648865 c 0.915185,0.391923 1.576146,1.212691 1.764273,2.189952 0.188128,0.977262 -0.120954,1.984818 -0.824528,2.688392 0,0 -1.762116,1.762117 -1.762116,1.762117 -1.296839,1.296838 -3.257578,1.693602 -5.492675,1.403056 -3.698477,-0.479716 -8.100862,-2.834312 -11.90198,-6.63543 -3.801118,-3.801118 -6.155714,-8.203503 -6.63543,-11.90198 -0.290546,-2.235097 0.106218,-4.195836 1.403056,-5.492675 0,0 1.762117,-1.762116 1.762117,-1.762116 0.703574,-0.703574 1.71113,-1.012656 2.688392,-0.824528 0.977261,0.188127 1.798029,0.849088 2.189953,1.764273 0,0 1.648864,3.84656 1.648864,3.84656 0,0 -3.056834,3.056834 -3.056834,3.056834 -0.636399,0.636398 -0.933608,1.658655 -0.652626,2.972017 0.31764,1.482956 1.416523,3.448756 3.480945,5.513178 2.064422,2.064422 4.030222,3.163305 5.513178,3.480945 1.313362,0.280982 2.335619,-0.01623 2.972017,-0.652626 z" id="path8" style="stroke-width:0.945908;fill:#000000"/></svg>