<?xml version="1.0" encoding="iso-8859-1"?>
<!-- Generator: Adobe Illustrator 16.0.0, SVG Export Plug-In . SVG Version: 6.00 Build 0)  -->
<!DOCTYPE svg PUBLIC "-//W3C//DTD SVG 1.1//EN" "http://www.w3.org/Graphics/SVG/1.1/DTD/svg11.dtd">
<svg version="1.1" id="Capa_1" xmlns="http://www.w3.org/2000/svg" xmlns:xlink="http://www.w3.org/1999/xlink" x="0px" y="0px"
	 width="792px" height="792px" viewBox="0 0 792 792" style="enable-background:new 0 0 792 792;" xml:space="preserve">
<g>
	<g>
		<path d="M529.144,0H262.846c-50.575,0-98.275,50.333-98.275,100.908v590.194c0,50.569,47.7,100.897,98.275,100.897h266.292
			c50.585,0,98.29-50.328,98.29-100.897V100.908C627.429,50.333,579.724,0,529.144,0z M606.857,691.103
			c0,39.445-38.258,80.326-77.714,80.326H262.846c-39.451,0-77.703-40.881-77.703-80.326V100.908
			c0-39.451,38.252-80.337,77.703-80.337h266.292c39.461,0,77.719,40.886,77.719,80.337V691.103z"/>
		<path d="M565.714,82.286H226.286c-5.678,0-10.286,4.603-10.286,10.286v540c0,5.678,4.608,10.286,10.286,10.286h339.428
			c5.678,0,10.286-4.608,10.286-10.286v-540C576,86.889,571.392,82.286,565.714,82.286z M555.429,622.286H236.571V102.857h318.857
			V622.286z"/>
		<path d="M432,663.429h-72c-5.678,0-10.286,4.607-10.286,10.285v72c0,5.678,4.608,10.286,10.286,10.286h72
			c5.678,0,10.286-4.608,10.286-10.286v-72C442.286,668.036,437.678,663.429,432,663.429z M421.714,735.429h-51.428V684h51.428
			V735.429z"/>
	</g>
</g>
<g>
</g>
<g>
</g>
<g>
</g>
<g>
</g>
<g>
</g>
<g>
</g>
<g>
</g>
<g>
</g>
<g>
</g>
<g>
</g>
<g>
</g>
<g>
</g>
<g>
</g>
<g>
</g>
<g>
</g>
</svg>
