<?xml version="1.0" standalone="no"?>
<!DOCTYPE svg PUBLIC "-//W3C//DTD SVG 20010904//EN"
 "http://www.w3.org/TR/2001/REC-SVG-20010904/DTD/svg10.dtd">
<svg version="1.0" xmlns="http://www.w3.org/2000/svg"
 width="512.000000pt" height="512.000000pt" viewBox="0 0 512.000000 512.000000"
 preserveAspectRatio="xMidYMid meet">

<g transform="translate(0.000000,512.000000) scale(0.100000,-0.100000)"
fill="#000000" stroke="none">
<path d="M1835 5109 c-231 -3 -474 -12 -540 -18 -491 -48 -732 -136 -936 -342
-192 -194 -285 -449 -329 -910 -20 -215 -32 -1254 -21 -1867 11 -585 17 -701
47 -901 53 -360 174 -608 376 -769 223 -177 489 -250 1028 -283 247 -15 1949
-15 2205 0 572 34 862 124 1080 336 228 223 319 504 356 1105 15 249 15 1951
0 2200 -36 594 -128 882 -350 1100 -197 195 -443 283 -916 330 -119 12 -992
30 -1355 28 -124 -1 -414 -5 -645 -9z m-345 -1614 c30 -27 51 -70 100 -205
176 -478 484 -942 600 -905 43 14 45 32 45 405 -1 339 -2 358 -22 412 -12 32
-37 78 -55 104 -61 85 -68 99 -68 132 0 22 8 41 25 57 l24 25 340 0 c187 0
347 -3 356 -6 8 -4 23 -21 33 -38 15 -27 18 -80 22 -467 5 -465 6 -469 55
-469 31 0 107 53 161 113 131 144 240 316 389 611 96 192 114 221 145 238 32
17 56 18 293 16 258 -3 259 -3 278 -27 64 -79 -38 -297 -371 -796 -147 -220
-150 -225 -150 -260 0 -38 27 -73 170 -220 414 -425 534 -655 373 -716 -13 -5
-131 -9 -260 -9 -221 0 -240 1 -280 21 -31 15 -90 71 -193 183 -195 212 -315
317 -425 373 -62 32 -134 36 -163 10 -19 -17 -20 -33 -24 -255 -2 -165 -7
-244 -16 -259 -24 -43 -87 -65 -203 -71 -351 -16 -705 141 -1000 445 -300 309
-661 947 -766 1353 -30 118 -27 174 12 208 27 23 27 23 290 20 247 -3 264 -4
285 -23z"/>
</g>
</svg>
