<svg xmlns="http://www.w3.org/2000/svg" shape-rendering="geometricPrecision" text-rendering="geometricPrecision" image-rendering="optimizeQuality" fill-rule="evenodd" clip-rule="evenodd" viewBox="0 0 512 512"><g fill-rule="nonzero"><path fill="#07F" d="M245.49 512h21.32c115.73 0 173.61 0 209.56-35.94 35.94-35.95 35.63-93.8 35.63-209.25v-21.62c0-115.43 0-173.3-35.63-209.25C440.73 0 382.54 0 266.81 0h-21.32C129.74 0 71.89 0 35.94 35.94 0 71.89 0 129.72 0 245.19v21.62c0 115.45 0 173.3 35.94 209.25C71.89 512 129.74 512 245.49 512z"/><path fill="#FEFEFE" d="M274.75 369.15c-115.45 0-185.51-80.1-188.23-213.2h58.47c1.82 97.78 46.3 139.27 80.4 147.73V155.95h56.05v84.36c32.89-3.65 67.3-42.02 78.89-84.36h55.12c-8.83 52.08-46.29 90.46-72.79 106.29 26.5 12.81 69.14 46.31 85.58 106.91h-60.6c-12.8-40.51-44.17-71.88-86.2-76.14v76.14h-6.69z"/></g></svg>