<svg fill="none" height="32" viewBox="0 0 32 32" width="32" xmlns="http://www.w3.org/2000/svg"><path clip-rule="evenodd" d="m5 0c-2.76142 0-5 2.23858-5 5v22c0 2.7614 2.23858 5 5 5h22c2.7614 0 5-2.2386 5-5v-22c0-2.76142-2.2386-5-5-5zm11.0857 24c.1086-3.5429.2-5.16 1.4572-6.4571 1.2971-1.2572 2.9142-1.3429 6.4571-1.4572 0 3.1943-.0114 5.5829-1.1543 6.76-1.1771 1.1429-3.4571 1.1543-6.76 1.1543zm-6.93141-1.1543c-1.14286-1.1771-1.15429-3.5657-1.15429-6.76 3.5429.1086 5.16.2 6.4571 1.4572 1.2572 1.2971 1.3429 2.9142 1.4572 6.4571-3.3029 0-5.5829-.0114-6.76001-1.1543zm0-13.69141c1.17711-1.14286 3.46281-1.15429 6.76001-1.15429-.1086 3.5429-.2 5.16-1.4572 6.4571-1.2971 1.2572-2.9142 1.3429-6.4571 1.4572 0-3.1943.01143-5.5829 1.15429-6.76001zm6.93141-1.15429c.1086 3.5429.2 5.16 1.4572 6.4571 1.2971 1.2572 2.9142 1.3429 6.4571 1.4572 0-3.1943-.0114-5.5829-1.1543-6.76001-1.1771-1.14286-3.4571-1.15429-6.76-1.15429z" fill="#000" fill-rule="evenodd"/></svg>